<?xml version="1.0" encoding="iso-8859-1"?>
<!-- Generator: Adobe Illustrator 19.0.0, SVG Export Plug-In . SVG Version: 6.00 Build 0)  -->
<svg xmlns="http://www.w3.org/2000/svg" xmlns:xlink="http://www.w3.org/1999/xlink" version="1.1" id="Capa_1" x="0px" y="0px" viewBox="0 0 512 512" style="enable-background:new 0 0 512 512;" xml:space="preserve" width="512px" height="512px">
<g>
	<g>
		<path d="M241.956,383.068l-23.595,0.957c0,0.038,0.001,0.075,0.001,0.112c0,12.18-5.751,23.64-15.501,30.938    c-1.283,0.96-2.579,1.939-3.885,2.937c-30.2,23.081-33.154,45.594-49.952,56.632s-7.362-29.249,5.138-48.851    c12.5-19.6-11.548-33.728-17.004-56.841c-1.097-4.644-1.683-18.098-1.83-21.729c-0.859-21.155,15.018-40.782,39.347-41.768    c5.83-0.237,34.228-1.39,36.903-1.498c-12.905-14.571-29.27-26.003-47.809-33.014c-29.354-11.1-62.319-10.377-91.344,2.359    C29.786,292.011,0,334.592,0,384.137c0,40.438,19.826,76.322,50.522,98.353c79.381,56.973,191.446,0.448,191.446-98.353    C241.969,383.78,241.959,383.425,241.956,383.068z M95.608,413.681c-10.623,20.066-34.23-1.18-36.591,12.984    c-1.492,8.955,13.589,21.083,17.757,30.121c1.253,2.718,0.547,5.938-1.731,7.881c-2.277,1.943-5.568,2.132-8.056,0.468    c-26.137-17.48-43.381-47.261-43.381-80.997c0-38.992,23.04-72.699,56.217-88.238c0.606,6.468-0.14,13.323-3.102,20.228    c-12.984,30.274-51.935,16.109-34.229,43.258C60.198,386.534,106.231,393.615,95.608,413.681z" fill="#FFFFFF"/>
	</g>
</g>
<g>
	<g>
		<path d="M510.582,253.484l-11.651-90.908c-0.883-6.892-5.195-12.868-11.456-15.88l-14.089-6.776l4.569-9.5    c9.193-3.605,17.408-9.74,23.514-18.005l-15.551-7.48c-9.391,6.573-24.834,6.985-39.316,0.02    c-14.482-6.965-23.801-19.286-24.529-30.727l-15.551-7.48c-2.17,8.149-2.336,16.512-0.709,24.463    c0.355,1.738,0.799,3.454,1.323,5.146l-4.569,9.5l-15.246-7.332c-5.532-2.661-11.965-2.704-17.532-0.118l-83.89,38.96    c-5.929,2.754-10.191,8.169-11.474,14.579l-16.673,83.285c-2.224,11.109,4.979,21.919,16.088,24.143    c11.102,2.225,21.917-4.974,24.143-16.088l14.632-73.087l53.819-24.994c-12.127,25.214-9.791,20.357-12.471,25.929    c-5.449,1.629-11.835,3.304-18.926,4.756l-9.554,4.437l-4.669,23.319c6.7-0.795,13.058-1.855,18.984-3.063l-15.902,33.064    l97.978,46.987l40.132-83.443l6.923,54.016l-38.236,58.605c-6.191,9.489-3.517,22.199,5.971,28.391    c9.488,6.191,22.201,3.517,28.391-5.971l42.363-64.931C510.079,263.219,511.202,258.32,510.582,253.484z M449.658,189.101    l-5.437,11.304c-0.781,1.624-2.729,2.306-4.353,1.525l-23.059-11.09c-1.624-0.781-2.306-2.729-1.525-4.352l5.437-11.304    c0.781-1.624,2.729-2.306,4.353-1.526l23.059,11.091C449.755,185.529,450.439,187.478,449.658,189.101z" fill="#FFFFFF"/>
	</g>
</g>
<g>
	<g>
		<path d="M481.612,32.161c-23.618-11.359-51.418-3.867-66.407,16.496l15.565,7.486c9.391-6.572,24.834-6.984,39.316-0.019    c14.482,6.965,23.801,19.286,24.529,30.726l15.565,7.486C516.73,69.913,505.23,43.52,481.612,32.161z" fill="#FFFFFF"/>
	</g>
</g>
<g>
	<g>
		<path d="M315.194,251.734l-6.276,13.048c-1.226,1.182,2.042-2.52-45.692,52.614l-88.793,3.604    c-13.585,0.552-24.15,12.011-23.599,25.596c0.551,13.569,11.99,24.148,25.596,23.599l99.434-4.037    c6.79-0.275,13.164-3.346,17.612-8.483c55.352-63.932,51.533-59.446,52.542-60.856l8.891,4.276    c-0.06,0.963-4.068,75.875-4.165,77.687l-66.63,36.482c-11.925,6.529-16.3,21.49-9.77,33.416    c6.527,11.921,21.486,16.3,33.416,9.77l78.656-43.067c7.477-4.094,12.304-11.764,12.76-20.277l4.055-75.716l9.94-20.667    C401.559,293.152,326.834,257.316,315.194,251.734z" fill="#FFFFFF"/>
	</g>
</g>
<g>
	<g>
		<path d="M196.625,138.343c4.596-3.698,8.538-7.423,11.912-11.047c18.634-20.021,28.033-45.713,25.789-70.49    c-3.052-33.694-20.599-44.505-30.787-47.95c-16.941-5.729-37.099,0.606-51.356,16.14c-17.936,19.541-21.742,47.013-10.18,73.486    c5.323,12.189,11.319,23.362,17.976,33.509c-22.248,10.907-55.174,19.127-103.693,18.222c-6.928-0.124-12.645,5.382-12.775,12.308    c-0.131,6.926,5.378,12.644,12.305,12.774c40.14,0.744,84.021-4.257,119.514-23.042c20.295,23.143,45.299,38.955,74.734,46.961    l4.939-24.669C232.47,168.123,213.021,156.098,196.625,138.343z M181.203,118.569c-5.994-9.064-11.402-19.11-16.214-30.126    c-7.467-17.1-5.346-34.476,5.672-46.483c6.305-6.87,16.38-12.198,24.838-9.34c7.612,2.574,12.527,11.967,13.84,26.449    c0.759,8.368,0.408,30.102-19.168,51.135C187.616,112.95,184.648,115.766,181.203,118.569z" fill="#FFFFFF"/>
	</g>
</g>
<g>
</g>
<g>
</g>
<g>
</g>
<g>
</g>
<g>
</g>
<g>
</g>
<g>
</g>
<g>
</g>
<g>
</g>
<g>
</g>
<g>
</g>
<g>
</g>
<g>
</g>
<g>
</g>
<g>
</g>
</svg>
