<svg width="580" height="400" xmlns="http://www.w3.org/2000/svg">
 <!-- Created with Method Draw - http://github.com/duopixel/Method-Draw/ -->

 <g>
  <title>background</title>
  <rect fill="#fff" id="canvas_background" height="402" width="582" y="-1" x="-1"/>
  <g display="none" overflow="visible" y="0" x="0" height="100%" width="100%" id="canvasGrid">
   <rect fill="url(#gridpattern)" stroke-width="0" y="0" x="0" height="100%" width="100%"/>
  </g>
 </g>
 <g>
  <title>Layer 1</title>
  <g stroke="null" opacity="0.7" id="svg_23">
   <g stroke="null" transform="matrix(14.160818998967889,0,0,18.696488105248083,-94.76289160575361,-150.30254730231388) " id="svg_5">
    <g stroke="null" id="svg_6">
     <path stroke="null" id="svg_7" fill="#dce0e3" d="m20.307137,21.516532l1.68,0.816l-0.96,1.967l-0.961,0.146l-0.146,0.77l-1.968,1.682l-0.912,1.728l0.671,0.722l-1.101,-0.289l-0.387,-0.961l1.104,-4.465l-0.913,-0.816l-0.429,-1.727l0.516,-0.845l-0.471,0.071l-0.67,-0.862l-0.577,-0.288l-1.344,-0.481l-1.106,-1.728l-0.671,-1.248l0,-1.682l-1.104,-1.872l-1.394,-0.865l-0.864,0.48l-1.584,0.77l1.007,-0.816l-0.625,-0.145l-0.237,-0.816l0.719,-0.577l-0.719,-0.095l0.142,-0.528l0.529,0l-0.48,-0.721l1.296,-0.77l2.353,1.298l0.867,-0.816l1.871,1.104l3.601,-0.387l0,1.826l-1.44,0.287l-0.289,0.771l1.393,1.487l0.336,-0.048l0.238,-1.872l0.916,-0.047l0.381,1.054l0.481,-0.287l1.056,2.355l-1.488,0.669l-1.152,0.626l-0.912,1.249l0,0.625l-0.337,0.047l-0.238,-0.672l-1.297,0.191l-0.288,0.815l0.335,0.481l0.479,-0.386l0.481,0.047l-0.24,0.685l0.575,0.041l0.193,0.719l0.388,0.129l0.286,-0.467l1.921,0.192l1.294,0.961l0.195,0.768zm22.744,-0.428l-0.104,0.814l-0.689,-0.252l0.127,-0.439l-0.756,-0.063l-0.979,0.912l-1.039,0.377l0.252,1.412l-0.096,0.283l0.381,0.219l1.541,-0.381l0.598,0.349l0.283,-0.156l0.188,0.569l0.785,0.222l0.568,-0.349l0.313,-1.694l-0.853,-0.851l-0.52,-0.972zm-3.817,-0.789l0.817,0.156l0.378,-1.162l-0.222,-0.191l-1.101,0.693l0.128,0.504zm2.515,-0.317l0.85,0.882l0.487,0.032l0.205,-0.188l0.692,0.438l-0.283,-0.598l-1.291,-0.627l-0.66,0.061zm1.543,-7.141l-0.221,0l-0.031,1.132l-0.566,1.197l-0.724,0.534l-0.031,0.472l1.321,-0.786l0.063,-0.819l0.438,-0.407l-0.345,-0.281l0.188,-0.663l-0.092,-0.379zm3.401,11.422l0.094,0.879l-0.975,0.914l0.629,0.063l0.563,-0.852l0.44,-0.596l-0.283,-0.031l-0.468,-0.377zm-21.038,-13.242l0,0.917l0.637,-0.279l0.18,-0.28l-0.689,-1.326l-0.407,0.283l0.025,0.354l-0.383,0.462l-0.026,0.482l0.46,0l0.203,-0.613zm5.756,10.795l-0.025,1.021l0.41,0.178l0.406,-1.223l-0.104,-0.512l-0.687,0.536zm14.149,-10.677l0.031,0.725l-0.818,1.008l-0.031,-1.134l1.068,-1.291l-0.658,0.097l-0.852,0.691l-1.04,-0.062l-0.785,0.756l0.565,0.408l-0.659,1.825l-0.565,0.097l-0.348,0.503l0.156,0.661l-0.408,0.218l-0.127,-0.597l-0.348,-0.474l-0.472,0.501l0.377,1.069l-0.533,0.978l-1.166,0.062l-0.25,0.41l0.533,0.786l-0.565,0.473l-0.58,-0.603l-0.021,0.568l0.506,0.568l0.221,1.006l0.631,0.224l0.852,0.346l-1.574,-0.282l-0.662,-0.629l-0.596,-0.852l0.814,0.41l-0.377,-0.689l-0.077,-0.941l-0.36,0.091l-0.44,-0.942l-1.229,0.851l0,0.539l-0.441,0.438l-0.563,-1.416l-0.628,-0.756l-1.512,-0.283l-0.439,-0.375l-0.222,0.125l0.313,0.756l0.502,-0.252l0.662,0.503l-1.949,1.164l-1.01,-1.982l-0.211,0.037l1.029,2.354l1.007,-0.473l-0.313,1.103l-1.008,0.91l0.156,1.354l-0.566,0.439l-1.035,1.951l-1.04,0.189l-0.912,-2.203l0.222,-1.006l-0.567,-1.765l-1.92,0.125l-1.072,-1.038l0.19,-1.699l1.039,-1.259l2.013,-0.346l0.127,0.533l0.819,0.534l0.313,-0.439l1.25,0.32l0.323,-0.195l0.143,-0.47l-0.863,-0.145l-0.279,-0.482l-0.203,-0.104l-0.178,0.611l-0.385,-0.485l0.025,-0.406l-0.514,-0.407l-0.305,-0.153l0.026,0.408l0.638,0.433l-0.332,0.384l-0.457,-0.612l-0.331,-0.384l-0.765,0.384l-0.535,0.841l-0.815,-0.127l-0.051,-1.019l1.043,0.073l-0.329,-0.532l-0.205,-0.436l0.79,-0.256l0.433,-0.584l0.357,-0.027l-0.077,-0.33l0.229,-0.307l0.179,0.509l0.993,0.025l0.279,-0.715l0.385,0.129l-0.129,-0.483l0.592,-0.189l-0.184,-0.218l-0.536,0.15l-0.188,-0.457l-0.023,-0.003l0.016,-0.032l-0.078,-0.192l0.215,-0.153l0.188,-0.479l-0.199,-0.03l-0.332,0.408l-0.279,0.609l0.309,0.33l-0.309,0.816l-0.459,0.179l-0.253,-0.814l-0.536,0.306l-0.254,-0.152l0.024,-0.79l0.46,-0.354l0.383,-0.943l0.969,-0.533l2.418,0.444c2.789,-0.293 7.85,-0.83 7.85,-0.83l8.35,1.179l0.314,0.881l-1.135,0.631l-0.86,0.18zm-14.324,3.19l-1.324,-0.688l-0.407,0.713l0.178,0.329l0.767,-0.126l0.561,0.153l0.225,-0.381zm1.398,0.864l-0.124,-0.789l-0.257,-0.382l0.309,-0.128l0,-0.381l-0.791,0.433l0.278,0.714l-0.125,0.483l0.71,0.05zm-11.409,-6.189l-0.709,-0.195l-0.877,0.937l1.127,2.935l0.533,0.132l0.042,-0.954l0.361,-0.222l0.021,-0.362l0.372,-0.699l-0.26,-0.527l-0.61,-1.045z"/>
    </g>
   </g>
   <g stroke="null" transform="matrix(14.160818998967889,0,0,18.696488105248083,-94.76289160575361,-150.30254730231388) " id="svg_8"/>
   <g stroke="null" transform="matrix(14.160818998967889,0,0,18.696488105248083,-94.76289160575361,-150.30254730231388) " id="svg_9"/>
   <g stroke="null" transform="matrix(14.160818998967889,0,0,18.696488105248083,-94.76289160575361,-150.30254730231388) " id="svg_10"/>
   <g stroke="null" transform="matrix(14.160818998967889,0,0,18.696488105248083,-94.76289160575361,-150.30254730231388) " id="svg_11"/>
   <g stroke="null" transform="matrix(14.160818998967889,0,0,18.696488105248083,-94.76289160575361,-150.30254730231388) " id="svg_12"/>
   <g stroke="null" transform="matrix(14.160818998967889,0,0,18.696488105248083,-94.76289160575361,-150.30254730231388) " id="svg_13"/>
   <g stroke="null" transform="matrix(14.160818998967889,0,0,18.696488105248083,-94.76289160575361,-150.30254730231388) " id="svg_14"/>
   <g stroke="null" transform="matrix(14.160818998967889,0,0,18.696488105248083,-94.76289160575361,-150.30254730231388) " id="svg_15"/>
   <g stroke="null" transform="matrix(14.160818998967889,0,0,18.696488105248083,-94.76289160575361,-150.30254730231388) " id="svg_16"/>
   <g stroke="null" transform="matrix(14.160818998967889,0,0,18.696488105248083,-94.76289160575361,-150.30254730231388) " id="svg_17"/>
   <g stroke="null" transform="matrix(14.160818998967889,0,0,18.696488105248083,-94.76289160575361,-150.30254730231388) " id="svg_18"/>
   <g stroke="null" transform="matrix(14.160818998967889,0,0,18.696488105248083,-94.76289160575361,-150.30254730231388) " id="svg_19"/>
   <g stroke="null" transform="matrix(14.160818998967889,0,0,18.696488105248083,-94.76289160575361,-150.30254730231388) " id="svg_20"/>
   <g stroke="null" transform="matrix(14.160818998967889,0,0,18.696488105248083,-94.76289160575361,-150.30254730231388) " id="svg_21"/>
   <g stroke="null" transform="matrix(14.160818998967889,0,0,18.696488105248083,-94.76289160575361,-150.30254730231388) " id="svg_22"/>
  </g>
  <path id="svg_24" d="m132.297493,186.590005l0,0c0,-2.485281 1.790862,-4.5 4.000002,-4.5l0,0c1.060866,0 2.078283,0.474106 2.828428,1.318019c0.750146,0.843914 1.171574,1.988506 1.171574,3.181981l0,0c0,2.485281 -1.790862,4.5 -4.000002,4.5l0,0c-2.20914,0 -4.000002,-2.014719 -4.000002,-4.5zm2.000001,0l0,0c0,1.24264 0.895432,2.25 2.000001,2.25c1.10457,0 2.000001,-1.00736 2.000001,-2.25c0,-1.24264 -0.895431,-2.25 -2.000001,-2.25l0,0c-1.104569,0 -2.000001,1.00736 -2.000001,2.25z" stroke-width="1.5" stroke="#000" fill="#fff"/>
  <path id="svg_25" d="m260.687501,127.850016l0,0c0,-1.932996 1.567003,-3.499999 3.5,-3.499999l0,0c0.928257,0 1.818496,0.368749 2.474873,1.025126c0.656378,0.656377 1.025127,1.546615 1.025127,2.474873l0,0c0,1.932995 -1.567003,3.499999 -3.5,3.499999l0,0c-1.932996,0 -3.5,-1.567003 -3.5,-3.499999zm1.75,0l0,0c0,0.966498 0.783502,1.749999 1.75,1.749999c0.966498,0 1.75,-0.783502 1.75,-1.749999c0,-0.966498 -0.783502,-1.749999 -1.75,-1.749999l0,0c-0.966498,0 -1.75,0.783502 -1.75,1.749999z" stroke-width="1.5" stroke="#000" fill="#fff"/>
  <line stroke-dasharray="5,2,2,2,2,2" stroke-linecap="undefined" stroke-linejoin="undefined" id="svg_26" y2="129" x2="262.5" y1="186" x1="137.5" stroke-width="1.5" stroke="#9A8AAB" fill="none"/>
  <path stroke="#9A8AAB" opacity="0.72" id="svg_27" d="m274.967113,117.706394c-0.830051,-0.343584 -1.161485,-1.28787 -1.161485,-1.28787s-0.373963,0.213886 -0.373963,-0.386816s0.373963,0.386816 0.747926,-1.932563c0,0 1.036831,-0.30111 0.830051,-2.791143l-0.249309,0c0,0 0.622539,-2.662204 0,-3.564016c-0.623272,-0.901812 -0.871847,-1.502515 -2.242312,-1.932563s-0.871114,-0.344342 -1.867616,-0.300351c-0.996502,0.043232 -1.827286,0.600702 -1.827286,0.901054c0,0 -0.622539,0.043232 -0.871114,0.30111c-0.249309,0.257877 -0.664334,1.459282 -0.664334,1.760392s0.207513,2.319379 0.415026,2.748669l-0.247109,0.085706c-0.207513,2.490033 0.830051,2.791143 0.830051,2.791143c0.37323,2.319379 0.747193,1.33186 0.747193,1.932563s-0.373963,0.386816 -0.373963,0.386816s-0.331434,0.944286 -1.161485,1.28787c-0.830051,0.342825 -5.437864,2.188923 -5.81256,2.575739c-0.374696,0.387574 -0.332167,2.19044 -0.332167,2.19044l19.759185,0c0,0 0.043262,-1.802866 -0.331434,-2.19044c-0.37543,-0.386816 -4.983242,-2.232914 -5.813293,-2.575739zm-9.143765,-0.130456c-0.072593,-0.136523 -0.108523,-0.235123 -0.108523,-0.235123s-0.316769,0.181273 -0.316769,-0.327656s0.316769,0.327656 0.633538,-1.637521c0,0 0.87918,-0.254843 0.703197,-2.365645l-0.211179,0c0,0 0.104856,-0.448251 0.173783,-1.011789c-0.002933,-0.233606 0.0044,-0.482382 0.027131,-0.755429l0.027864,-0.323105c-0.015398,-0.373164 -0.078459,-0.712196 -0.228777,-0.929875c-0.527948,-0.763772 -0.739127,-1.273459 -1.899879,-1.637521c-1.160752,-0.364062 -0.739127,-0.292008 -1.583111,-0.254843c-0.844717,0.036406 -1.548647,0.508928 -1.548647,0.76453c0,0 -0.527948,0.036406 -0.739127,0.254843c-0.198714,0.205543 -0.516949,1.108872 -0.555079,1.429702l0,0.213128c0.034463,0.495276 0.189181,1.857475 0.343899,2.178305l-0.209713,0.072812c-0.175249,2.110802 0.703197,2.365645 0.703197,2.365645c0.316769,1.965177 0.633538,1.128592 0.633538,1.637521s-0.316769,0.327656 -0.316769,0.327656s-0.280839,0.801695 -0.98477,1.091428c-0.044729,0.018203 -0.101923,0.042474 -0.170117,0.069779l0,3.969794l0.421625,0c-0.021265,-0.969315 0.056461,-2.22002 0.547013,-2.725915c0.261041,-0.269254 1.116757,-0.712196 4.657674,-2.17072zm16.373718,-6.868638c-0.02933,-0.286699 -0.093124,-0.542301 -0.214112,-0.717506c-0.527215,-0.76453 -0.739127,-1.273459 -1.899146,-1.637521c-1.161485,-0.364062 -0.739127,-0.292008 -1.583844,-0.254843c-0.843983,0.036406 -1.547914,0.508928 -1.547914,0.76453c0,0 -0.527215,0.036406 -0.739127,0.254843c-0.198714,0.206302 -0.519882,1.116457 -0.555812,1.434253l0.024198,0l0.058661,0.692476c0.014665,0.175205 0.016132,0.33069 0.019798,0.489208c0.065993,0.505136 0.153985,1.023925 0.241976,1.205197l-0.209713,0.072812c-0.175249,2.110802 0.703931,2.365645 0.703931,2.365645c0.316769,1.965177 0.632804,1.128592 0.632804,1.637521s-0.316769,0.327656 -0.316769,0.327656s-0.038863,0.107702 -0.119522,0.25636c3.497655,1.441079 4.346038,1.880987 4.604146,2.149483c0.491285,0.505895 0.568277,1.755841 0.547013,2.725915l0.351965,0l0,-4.024403c-0.011732,-0.004551 -0.027864,-0.011377 -0.03813,-0.015928c-0.703197,-0.290491 -0.98477,-1.091428 -0.98477,-1.091428s-0.317502,0.181273 -0.317502,-0.327656s0.317502,0.327656 0.633538,-1.637521c0,0 0.589542,-0.173688 0.70613,-1.39633l0,-0.930634c-0.000733,-0.013652 -0.000733,-0.025029 -0.0022,-0.038682l-0.211912,0c0,0 0.157651,-0.675032 0.214112,-1.411499l0,-0.891952l0.0022,0z" stroke-width="1.5" fill="#645A73"/>
  <path opacity="0.83" id="svg_28" d="m128.731309,186.57501c0,0 0.504025,-2.505714 0,-3.354516c-0.504618,-0.848802 -0.705872,-1.414194 -1.815438,-1.818963s-0.705278,-0.324101 -1.512074,-0.282696c-0.806796,0.040691 -1.479422,0.565392 -1.479422,0.848088c0,0 -0.504025,0.040691 -0.705278,0.28341c-0.201847,0.242719 -0.537864,1.373503 -0.537864,1.656913s0.168008,2.183041 0.336016,2.587097l-0.200066,0.080668c-0.168008,2.343664 0.672033,2.627074 0.672033,2.627074c0.302177,2.183041 0.604948,1.253571 0.604948,1.818963s-0.302771,0.364078 -0.302771,0.364078s-0.268338,0.888779 -0.940371,1.212166c-0.672033,0.322673 -4.402646,2.060254 -4.706011,2.424332c-0.303365,0.364792 -0.268932,2.061682 -0.268932,2.061682l15.997586,0c0,0 0.035026,-1.69689 -0.268338,-2.061682c-0.303958,-0.364792 -4.034571,-2.101659 -4.706604,-2.424332c-0.672033,-0.323387 -0.940371,-1.212166 -0.940371,-1.212166s-0.302771,0.201314 -0.302771,-0.364078s0.302771,0.364078 0.605542,-1.818963c0,0 0.839447,-0.28341 0.672033,-2.627074l-0.201847,0z" fill-opacity="null" stroke-opacity="null" stroke-width="1.5" stroke="#9A8AAB" fill="#645A73"/>
 </g>
</svg>