<?xml version="1.0" encoding="utf-8"?>
<!-- Generator: Adobe Illustrator 21.1.0, SVG Export Plug-In . SVG Version: 6.00 Build 0)  -->
<svg version="1.1" id="Layer_1" xmlns="http://www.w3.org/2000/svg" xmlns:xlink="http://www.w3.org/1999/xlink" x="0px" y="0px"
	 viewBox="0 0 1366 768" style="enable-background:new 0 0 1366 768;" xml:space="preserve">
<style type="text/css">
	.st0{opacity:0.18;fill:#8800AA;enable-background:new    ;}
	.st1{opacity:0.18;fill:none;}
</style>
<circle class="st0" cx="1138.6" cy="662" r="42.4"/>
<line class="st1" x1="624.5" y1="718.2" x2="664" y2="718.2"/>
<line class="st1" x1="966.5" y1="718.2" x2="702.9" y2="718.2"/>
<line class="st1" x1="991.6" y1="718.2" x2="1018" y2="718.2"/>
<line class="st1" x1="561.6" y1="701.3" x2="561.6" y2="735.1"/>
<line class="st1" x1="589.5" y1="701.3" x2="589.5" y2="735.1"/>
<circle class="st0" cx="732.5" cy="741.2" r="20"/>
<circle class="st0" cx="1148.5" cy="315.4" r="18.6"/>
<circle class="st0" cx="884.5" cy="191" r="24.7"/>
<polygon class="st0" points="1168.1,203.2 1139.1,204.1 1110.1,205 1123.9,179.4 1137.6,153.9 1152.9,178.5 "/>
<polygon class="st0" points="665.4,678.4 643.7,691.4 622,704.3 622,678.4 622,652.5 643.7,665.4 "/>
<line class="st1" x1="736.7" y1="351.7" x2="639.2" y2="351.7"/>
<line class="st1" x1="681.6" y1="238.7" x2="663.3" y2="238.7"/>
<line class="st1" x1="1189.9" y1="494.7" x2="1189.9" y2="445.4"/>
<line class="st1" x1="1190.2" y1="544.1" x2="1239.5" y2="544.1"/>
<path class="st0" d="M938.9,336.2c-94.4,0-170.9,76.5-170.9,170.9S844.5,678,938.9,678s170.9-76.5,170.9-170.9
	S1033.3,336.2,938.9,336.2L938.9,336.2z M938.9,665.4c-87.4,0-158.3-70.9-158.3-158.3s70.9-158.3,158.3-158.3
	s158.3,70.9,158.3,158.3l0,0C1097.1,594.5,1026.3,665.3,938.9,665.4z"/>
<path class="st0" d="M975.5,518.5l-58.2-32.6c-3.1-1.7-6.9-0.6-8.6,2.4c-0.5,0.9-0.8,2-0.8,3.1v65.3c0,3.5,2.8,6.3,6.3,6.4
	c1.1,0,2.2-0.3,3.1-0.8l58.2-32.6c3.1-1.6,4.4-5.4,2.8-8.5C977.7,520,976.7,519.1,975.5,518.5z M920.5,545.7v-43.5l38.8,21.7
	L920.5,545.7z"/>
<path class="st0" d="M1007.3,414.9H870.5c-13,0-23.5,10.5-23.5,23.5v137.4c0,13,10.5,23.6,23.5,23.7l0,0h136.7
	c13,0,23.5-10.5,23.5-23.5V438.4C1030.7,425.4,1020.2,414.9,1007.3,414.9z M1018.1,438.4v10.4h-21.2l12.9-21c5,1,8.6,5.5,8.6,10.6
	H1018.1z M958.3,448.8l13.1-21.3h23.2l-12.9,21.4h-22.8L958.3,448.8z M920.3,448.8l13.1-21.3h23.2l-13.1,21.3h-22.6H920.3z
	 M882.3,448.8l13.9-21.2h23.2l-13.1,21.3h-23.5L882.3,448.8z M870.5,427.6h10.7l-13.1,21.3h-8.5v-10.5
	C859.7,432.4,864.5,427.6,870.5,427.6L870.5,427.6z M1007.3,586.7H870.5c-6,0-10.9-4.9-10.9-10.9l0,0V461.5h158.8v114.3
	c0,6-4.9,10.9-10.8,10.9C1007.5,586.7,1007.4,586.7,1007.3,586.7z"/>
<path class="st0" d="M1266.6,498.8h-57.5c-5,0.2-8.9,4.2-9.1,9.1v29.6c0,5.1,4,9.3,9.1,9.6h57.5c5-0.2,8.9-4.2,9.1-9.1v-30
	C1275.6,503,1271.6,499,1266.6,498.8 M1370.3,303.4V360h-28.7v-56.2L1370.3,303.4z M1292.5,442.7c0.2,3.6-2.5,6.7-6.1,7
	c-3.6,0.2-6.7-2.5-7-6.1c-0.2-3.6,2.5-6.7,6.1-7c0.1,0,0.3,0,0.4,0c3.6,0,6.5,2.9,6.5,6.5"/>
<circle class="st0" cx="966.1" cy="273.7" r="12.3"/>
</svg>
