<?xml version="1.0" encoding="utf-8"?>
<!-- Generator: Adobe Illustrator 21.1.0, SVG Export Plug-In . SVG Version: 6.00 Build 0)  -->
<svg version="1.1" id="Layer_1" xmlns="http://www.w3.org/2000/svg" xmlns:xlink="http://www.w3.org/1999/xlink" x="0px" y="0px"
	 viewBox="0 0 1366 768" style="enable-background:new 0 0 1366 768;" xml:space="preserve">
<style type="text/css">
	.st0{opacity:0.3;fill:#845E83;}
</style>
<g>
	<path class="st0" d="M1247.2,625.6c0.5,2.8,0.4,6.2-0.4,10.1c-0.7,3.9-1.9,8-3.5,12c-1.6,4-3.6,7.7-5.9,10.9
		c-2.3,3.2-4.9,5.6-7.7,7c-2.8,1.4-5.2,2.1-7.3,2.1s-4.4-0.5-7-1.4c-2.3-0.7-5.2-1.3-8.7-1.9c-3.5-0.6-7-0.7-10.6-0.4
		c-3.6,0.4-7.2,1.1-10.8,2.3s-6.7,3.2-9.3,5.9c-5.6,5.8-8.8,12.4-9.7,19.9c-0.9,7.4,0.1,14.5,3.2,21.3c2.3,4.6,2,9.3-1.1,13.9
		c-1.4,1.9-3.6,3.8-6.6,5.7c-3,2-6.3,3.8-9.9,5.4s-7.4,2.9-11.3,3.8c-3.9,0.9-7.4,1.4-10.4,1.4c-2.1,0-4.1-0.8-5.9-2.5
		s-3.2-3.4-3.8-5.2h-0.4c-2.6-7.2-6.9-13.4-13.1-18.6c-6.2-5.2-13.3-7.8-21.4-7.8c-7.9,0-15.1,2.6-21.4,7.8
		c-6.4,5.2-10.9,11.3-13.4,18.3c-1.2,2.8-2.9,4.8-5.2,6.1c-2.3,1.3-4.9,1.9-7.7,1.9c-3.2,0-6.9-0.6-11-1.8
		c-4.1-1.2-8.1-2.6-12.2-4.3c-4.1-1.8-7.7-3.8-11-6.1c-3.2-2.3-5.7-4.6-7.3-7c-1.2-1.6-1.8-3.5-1.9-5.7c-0.1-2.2,0.8-5.3,2.6-9.3
		c2.6-5.3,3.5-11.4,3-18.3s-3.5-13.2-8.9-19c-3.2-3.5-7.2-5.7-11.8-6.8c-4.6-1-9.1-1.5-13.2-1.2c-4.9,0.2-9.9,1.2-15,2.8
		c-3.2,0.9-6.5,0.7-9.7-0.7c-2.6-0.9-4.9-3.1-7.2-6.4c-2.2-3.4-4.2-7.1-5.9-11.1c-1.6-4-3-8.2-3.9-12.5s-1.2-7.8-0.7-10.6
		c0.7-5.1,3-8.4,7-9.7c7-2.8,13.2-7.4,18.8-13.8c5.6-6.4,8.4-13.5,8.4-21.4c0-8.1-2.8-15.2-8.4-21.3c-5.6-6.1-11.9-10.5-18.8-13.3
		c-2.1-0.7-3.8-2.4-5.2-5c-1.4-2.7-2.1-5.4-2.1-8.2c0-3,0.5-6.4,1.4-10.1c0.9-3.7,2.2-7.3,3.6-10.8c1.5-3.5,3.2-6.7,5.2-9.6
		c2-2.9,4.1-5,6.4-6.4c1.9-1.2,3.6-1.6,5.4-1.4c1.8,0.2,3.6,0.7,5.7,1.4c7,2.8,14.2,3.6,21.8,2.6c7.6-1.1,14.2-4.3,20-9.9
		c2.8-2.8,4.8-6.2,6.1-10.3c1.3-4.1,2.1-8.1,2.5-12c0.3-3.9,0.3-7.6,0-10.8c-0.4-3.2-0.6-5.6-0.9-7c-0.5-1.4-0.9-3-1.2-4.9
		c-0.4-1.9-0.2-3.5,0.5-4.9c1.4-3.2,3.9-6.1,7.5-8.6s7.5-4.5,11.7-6.1c4.2-1.6,8.3-2.9,12.2-3.6c3.9-0.8,7.1-1.2,9.4-1.2
		c3,0,5.4,1,7.1,3c1.8,2,3,4,3.6,6.1c2.6,6.3,6.7,11.8,12.5,16.5c5.8,4.8,12.7,7.1,20.6,7.1c8.1,0,15.3-2.3,21.6-6.8
		c6.3-4.5,10.7-10.3,13.2-17.2c0.9-1.9,2.4-3.8,4.3-5.7c2-2,4-3,6.1-3c3.2,0,6.8,0.5,10.6,1.4c3.8,0.9,7.6,2.2,11.3,3.8
		c3.7,1.6,7.1,3.7,10.3,6.3c3.2,2.6,5.6,5.3,7.5,8.4c1.2,1.9,1.5,3.9,1.1,6.1c-0.5,2.2-0.9,3.8-1.4,4.7c-3,6.7-3.9,13.8-2.8,21.3
		c1.2,7.4,4.5,13.9,10.1,19.5c5.6,5.6,12.4,8.7,20.6,9.2c8.1,0.6,15.7-0.8,22.6-4c1.9-1.2,4.1-1.6,6.8-1.4c2.7,0.2,4.9,1.3,6.8,3.2
		c3.5,3.2,6.6,8.2,9.3,14.8c2.7,6.6,4.5,13.3,5.4,20c0.5,3.9-0.2,7-1.9,9.3c-1.8,2.2-3.5,3.6-5.4,4.3c-7.2,2.6-13.4,7-18.5,13.4
		s-7.7,13.7-7.7,21.8c0,7.9,2.2,14.8,6.4,20.7c4.3,5.9,9.9,10.2,16.9,12.7c1.6,0.9,3,1.9,4.2,2.8
		C1244.5,619.7,1246.2,622.3,1247.2,625.6L1247.2,625.6z M1083.5,678c13.3,0,25.8-2.5,37.6-7.5s22.1-12,30.8-20.8
		c8.7-8.8,15.6-19.1,20.6-30.8c5-11.7,7.5-24.1,7.5-37.4s-2.5-25.7-7.5-37.4s-11.9-21.9-20.6-30.5c-8.7-8.7-19-15.6-30.8-20.6
		s-24.4-7.5-37.6-7.5s-25.7,2.5-37.4,7.5c-11.7,5-21.8,11.9-30.5,20.6c-8.7,8.7-15.6,18.9-20.6,30.5c-5,11.7-7.5,24.1-7.5,37.4
		s2.5,25.7,7.5,37.4s11.9,21.9,20.6,30.8c8.7,8.8,18.9,15.8,30.5,20.8C1057.8,675.5,1070.3,678,1083.5,678L1083.5,678z
		 M1342.3,338.2c0.7,1.8,1.1,4,1.2,6.8c0.1,2.7-0.1,5.5-0.6,8.5c-0.5,2.9-1.3,5.6-2.4,8.1s-2.5,4.4-4.1,5.7
		c-1.7,1.3-3.2,2.1-4.6,2.4s-3,0.3-4.8,0c-1.6-0.1-3.7-0.2-6-0.1c-2.4,0.1-4.8,0.5-7.1,1.2c-2.3,0.7-4.6,1.7-6.9,3s-4,3-5.3,5.2
		c-2.9,4.6-4.1,9.5-3.7,14.5c0.4,5.1,2.1,9.6,5,13.7c2.2,2.8,2.6,5.9,1.2,9.4c-0.7,1.4-1.9,3-3.6,4.7c-1.7,1.7-3.7,3.4-5.8,5
		c-2.2,1.6-4.5,3-7,4.1c-2.5,1.2-4.7,2-6.7,2.4c-1.4,0.3-2.8,0-4.3-0.8c-1.5-0.8-2.6-1.8-3.3-2.9l-0.2,0.1
		c-2.7-4.4-6.4-7.9-11.2-10.5c-4.8-2.6-9.9-3.3-15.3-2.2c-5.2,1.1-9.6,3.8-13.1,8.2c-3.5,4.4-5.6,9-6.4,14c-0.4,2-1.3,3.6-2.6,4.8
		c-1.4,1.2-3,1.9-4.8,2.3c-2.2,0.4-4.7,0.6-7.5,0.4c-2.9-0.2-5.7-0.6-8.7-1.2c-2.9-0.6-5.6-1.4-8.1-2.5c-2.5-1.1-4.4-2.3-5.8-3.6
		c-1-0.9-1.7-2.1-2.1-3.5c-0.4-1.5-0.2-3.6,0.5-6.5c1-3.9,0.8-8.1-0.6-12.5s-4.2-8.3-8.5-11.4c-2.6-1.9-5.6-2.8-8.8-2.9
		c-3.2,0-6.2,0.3-8.9,1c-3.2,0.8-6.4,2.1-9.5,3.9c-2,1.1-4.2,1.4-6.6,0.9c-1.8-0.3-3.7-1.4-5.6-3.3c-1.9-1.9-3.8-4.1-5.5-6.6
		c-1.6-2.4-3.1-5-4.3-7.7c-1.2-2.7-1.9-5-1.9-7c-0.2-3.5,0.8-6,3.3-7.4c4.2-2.8,7.8-6.7,10.6-11.7c2.8-5,3.7-10.1,2.6-15.4
		c-1.1-5.4-4-9.7-8.5-12.9c-4.6-3.2-9.3-5.3-14.3-6.2c-1.5-0.2-2.9-1-4.2-2.6c-1.3-1.6-2.1-3.3-2.5-5.1c-0.4-2-0.6-4.3-0.5-6.9
		c0.1-2.6,0.4-5.2,0.9-7.7c0.5-2.5,1.2-4.9,2.1-7.1c0.9-2.2,2-3.9,3.4-5.2c1.1-1,2.2-1.6,3.4-1.7c1.2-0.1,2.5,0,4,0.1
		c5,0.9,9.9,0.4,14.8-1.3c4.9-1.8,8.8-4.8,11.9-9.4c1.5-2.2,2.3-4.8,2.6-7.7s0.3-5.7,0-8.3c-0.3-2.7-0.8-5.1-1.5-7.2
		c-0.7-2.1-1.2-3.6-1.5-4.5c-0.5-0.9-1-1.9-1.5-3.1c-0.5-1.2-0.6-2.3-0.3-3.3c0.5-2.3,1.7-4.6,3.8-6.7c2.1-2.1,4.3-4,6.9-5.7
		c2.5-1.7,5.1-3,7.6-4.1c2.5-1.1,4.5-1.8,6.1-2.1c2-0.4,3.7-0.1,5.1,1c1.4,1.1,2.5,2.3,3.3,3.5c2.6,3.8,6.1,6.9,10.6,9.2
		c4.5,2.4,9.4,3,14.6,1.9c5.4-1.1,9.8-3.6,13.4-7.5c3.5-3.9,5.7-8.3,6.4-13.3c0.4-1.4,1.1-2.8,2.1-4.4c1-1.6,2.3-2.5,3.6-2.8
		c2.2-0.4,4.6-0.6,7.2-0.6c2.7,0.1,5.3,0.4,8,1c2.7,0.6,5.2,1.5,7.7,2.7s4.5,2.8,6.1,4.5c1,1.1,1.5,2.4,1.5,3.9s-0.1,2.6-0.3,3.3
		c-1.1,4.9-0.7,9.7,1.1,14.5c1.8,4.8,4.9,8.6,9.4,11.5c4.5,2.9,9.4,4,14.9,3.3c5.5-0.7,10.3-2.7,14.5-5.8c1.1-1,2.5-1.6,4.3-1.9
		s3.5,0.2,4.9,1.1c2.8,1.7,5.5,4.5,8.2,8.5c2.7,4,4.8,8.2,6.4,12.5c0.9,2.6,0.9,4.7,0,6.4s-1.8,2.9-3,3.6
		c-4.4,2.7-7.9,6.5-10.4,11.5c-2.5,4.9-3.2,10.1-2.1,15.5c1.1,5.2,3.5,9.5,7.1,12.8c3.7,3.3,8,5.4,13,6.1c1.2,0.4,2.3,0.8,3.2,1.3
		C1339.7,334.7,1341.2,336.2,1342.3,338.2L1342.3,338.2z M1241.1,395.6c8.8-1.8,16.8-5.3,23.9-10.2c7.1-5,13-11,17.5-18.1
		c4.6-7.1,7.7-14.8,9.4-23.2c1.7-8.4,1.7-17-0.2-25.8c-1.8-8.8-5.2-16.7-10.2-23.8c-4.9-7-10.9-12.8-17.9-17.4
		c-7-4.6-14.7-7.7-23.2-9.4c-8.5-1.7-17.2-1.6-26,0.2c-8.8,1.8-16.7,5.2-23.8,10.2c-7,4.9-12.8,10.9-17.4,17.9
		c-4.6,7-7.7,14.7-9.4,23.1c-1.7,8.4-1.7,17,0.2,25.8c1.8,8.8,5.2,16.7,10.2,23.8s10.9,12.9,17.9,17.5c7,4.7,14.7,7.9,23.1,9.6
		C1223.7,397.5,1232.3,397.5,1241.1,395.6L1241.1,395.6z M1086.6,245.8c0.3,1.9,0.3,4.3-0.3,7.1c-0.5,2.8-1.3,5.6-2.4,8.4
		c-1.1,2.8-2.5,5.4-4.1,7.6c-1.6,2.3-3.4,3.9-5.4,4.9c-1.9,1-3.7,1.5-5.1,1.5c-1.5,0-3.1-0.3-4.9-1c-1.6-0.5-3.7-0.9-6.1-1.3
		s-4.9-0.5-7.4-0.3c-2.5,0.3-5,0.8-7.6,1.6s-4.7,2.2-6.5,4.1c-3.9,4.1-6.2,8.7-6.8,13.9c-0.6,5.2,0.1,10.2,2.2,14.9
		c1.6,3.2,1.4,6.5-0.7,9.7c-1,1.3-2.5,2.6-4.6,4c-2.1,1.4-4.4,2.6-7,3.8s-5.1,2-7.9,2.7c-2.8,0.6-5.2,1-7.3,1
		c-1.5,0-2.9-0.6-4.1-1.7c-1.3-1.1-2.2-2.4-2.7-3.7h-0.3c-1.8-5-4.8-9.4-9.1-13c-4.3-3.7-9.3-5.5-15-5.5c-5.5,0-10.5,1.8-15,5.5
		c-4.5,3.7-7.6,7.9-9.4,12.8c-0.8,1.9-2,3.4-3.7,4.3s-3.4,1.3-5.4,1.3c-2.3,0-4.8-0.4-7.7-1.2c-2.9-0.8-5.7-1.8-8.5-3
		c-2.9-1.2-5.4-2.6-7.7-4.3c-2.3-1.6-4-3.2-5.1-4.9c-0.8-1.1-1.3-2.5-1.3-4c-0.1-1.6,0.5-3.7,1.8-6.5c1.8-3.7,2.5-8,2.1-12.8
		c-0.4-4.8-2.5-9.2-6.2-13.3c-2.3-2.4-5-4-8.3-4.8c-3.2-0.7-6.3-1-9.2-0.9c-3.4,0.2-6.9,0.8-10.5,1.9c-2.3,0.6-4.5,0.5-6.8-0.5
		c-1.8-0.6-3.5-2.2-5-4.5c-1.6-2.4-2.9-5-4.1-7.8c-1.1-2.8-2.1-5.7-2.7-8.7c-0.6-3-0.8-5.5-0.5-7.4c0.5-3.6,2.1-5.8,4.9-6.8
		c4.9-1.9,9.2-5.1,13.2-9.6c3.9-4.5,5.8-9.5,5.8-15c0-5.7-1.9-10.6-5.8-14.9c-3.9-4.2-8.3-7.3-13.2-9.3c-1.5-0.5-2.7-1.7-3.7-3.5
		c-1-1.9-1.5-3.8-1.5-5.7c0-2.1,0.3-4.5,1-7.1c0.6-2.6,1.5-5.1,2.5-7.6c1.1-2.4,2.3-4.7,3.7-6.7c1.4-2,2.9-3.5,4.5-4.5
		c1.3-0.8,2.5-1.1,3.8-1c1.2,0.2,2.5,0.5,4,1c4.9,1.9,9.9,2.5,15.2,1.8c5.3-0.7,9.9-3,14-7c1.9-1.9,3.4-4.3,4.3-7.2
		c0.9-2.9,1.5-5.7,1.7-8.4c0.2-2.8,0.2-5.3,0-7.6c-0.3-2.3-0.4-3.9-0.6-4.9c-0.3-1-0.6-2.1-0.9-3.4s-0.1-2.4,0.4-3.4
		c1-2.3,2.7-4.3,5.2-6c2.5-1.7,5.2-3.1,8.2-4.3c2.9-1.1,5.8-2,8.5-2.5c2.8-0.6,5-0.9,6.6-0.9c2.1,0,3.8,0.7,5,2.1
		c1.2,1.4,2.1,2.8,2.5,4.3c1.8,4.4,4.7,8.3,8.8,11.6c4.1,3.3,8.9,5,14.4,5c5.7,0,10.7-1.6,15.1-4.8c4.4-3.2,7.5-7.2,9.2-12.1
		c0.6-1.3,1.7-2.6,3-4c1.4-1.4,2.8-2.1,4.3-2.1c2.3,0,4.8,0.3,7.4,1s5.3,1.6,7.9,2.7c2.6,1.1,5,2.6,7.2,4.4c2.2,1.8,3.9,3.7,5.2,5.8
		c0.8,1.3,1.1,2.7,0.7,4.3c-0.3,1.6-0.6,2.6-1,3.3c-2.1,4.7-2.8,9.7-1.9,14.9c0.8,5.2,3.2,9.7,7.1,13.7c3.9,3.9,8.7,6,14.4,6.4
		c5.7,0.4,11-0.5,15.8-2.8c1.3-0.8,2.9-1.1,4.8-1c1.9,0.2,3.5,0.9,4.8,2.2c2.4,2.3,4.6,5.7,6.5,10.4s3.1,9.3,3.8,14
		c0.3,2.8-0.1,4.9-1.3,6.5c-1.2,1.6-2.5,2.5-3.8,3c-5,1.8-9.3,4.9-12.9,9.4c-3.6,4.5-5.4,9.5-5.4,15.2c0,5.5,1.5,10.4,4.5,14.5
		c3,4.1,6.9,7.1,11.8,8.9c1.1,0.6,2.1,1.3,2.9,1.9C1084.7,241.7,1085.9,243.6,1086.6,245.8L1086.6,245.8z M972.2,282.5
		c9.3,0,18.1-1.8,26.3-5.3s15.4-8.4,21.5-14.5c6.1-6.2,10.9-13.4,14.4-21.5c3.5-8.2,5.3-16.9,5.3-26.1c0-9.3-1.8-18-5.3-26.1
		c-3.5-8.2-8.3-15.3-14.4-21.3c-6.1-6.1-13.3-10.9-21.5-14.4c-8.2-3.5-17-5.3-26.3-5.3s-18,1.8-26.1,5.3
		c-8.2,3.5-15.3,8.3-21.3,14.4c-6.1,6.1-10.9,13.2-14.4,21.3c-3.5,8.2-5.3,16.9-5.3,26.1c0,9.3,1.8,18,5.3,26.1
		c3.5,8.2,8.3,15.3,14.4,21.5c6.1,6.2,13.2,11,21.3,14.5S962.9,282.5,972.2,282.5L972.2,282.5z M1083.3,698.5
		c-64.9,0-117.8-52.8-117.8-117.8S1018.3,463,1083.3,463S1201,515.8,1201,580.8S1148.2,698.5,1083.3,698.5z M1083.3,468.8
		c-61.7,0-111.9,50.2-111.9,111.9s50.2,111.9,111.9,111.9s111.9-50.2,111.9-111.9S1145,468.8,1083.3,468.8z M1149.8,566
		c1.2,0.8,2.7-0.1,2.7-1.5c0,0,0,0,0-0.1c0-8.4-6.8-15.2-15.2-15.2c-8.4,0-15.2,6.8-15.2,15.2c0,0,0,0,0,0.1c0,1.4,1.6,2.2,2.7,1.5
		c3.6-2.2,7.8-3.5,12.4-3.5C1142,562.4,1146.2,563.7,1149.8,566z M1041.5,566c1.2,0.8,2.7-0.1,2.7-1.5c0,0,0,0,0-0.1
		c0-8.4-6.8-15.2-15.2-15.2c-8.4,0-15.2,6.8-15.2,15.2c0,0,0,0,0,0.1c0,1.4,1.6,2.2,2.7,1.5c3.6-2.2,7.8-3.5,12.4-3.5
		C1033.6,562.4,1037.9,563.7,1041.5,566z M1083.9,633.1c-19.2,0-38.2-7.4-52.2-20.4c-2.3-2.1-2.4-5.7-0.3-7.9
		c2.1-2.3,5.7-2.4,7.9-0.3c11.9,11,28.1,17.4,44.5,17.4c15.8,0,31.7-6,43.4-16.4c2.3-2,5.8-1.8,7.9,0.5c2,2.3,1.8,5.8-0.5,7.9
		C1120.7,626.3,1102.7,633.1,1083.9,633.1z"/>
</g>
</svg>
