<?xml version="1.0" encoding="utf-8"?>
<!-- Generator: Adobe Illustrator 21.1.0, SVG Export Plug-In . SVG Version: 6.00 Build 0)  -->
<svg version="1.1" id="Layer_1" xmlns="http://www.w3.org/2000/svg" xmlns:xlink="http://www.w3.org/1999/xlink" x="0px" y="0px"
	 viewBox="0 0 1366 768" style="enable-background:new 0 0 1366 768;" xml:space="preserve">
<style type="text/css">
	.st0{opacity:0.58;}
	.st1{fill:#8976AD;}
</style>
<g class="st0">
	<path class="st1" d="M890,492.9c0-14.9-12.1-27-27-27s-27,12.1-27,27v23.2c0,6.4-5.2,11.6-11.6,11.6c-6.4,0-11.6-5.2-11.6-11.6
		v-23.2c0-6.4,5.2-11.6,11.6-11.6h3.9v-15.5h-3.9c-14.9,0-27,12.1-27,27v3.9h-15.5v15.5h15.5v3.9c0,14.9,12.1,27,27,27
		s27-12.1,27-27v-23.2c0-6.4,5.2-11.6,11.6-11.6s11.6,5.2,11.6,11.6v23.2c0,6.4-5.2,11.6-11.6,11.6h-3.9v15.5h3.9
		c14.9,0,27-12.1,27-27v-3.9h15.5v-15.5H890V492.9z"/>
	<path class="st1" d="M843.6,411.8c-51.1,0-92.7,41.6-92.7,92.7s41.6,92.7,92.7,92.7c51.1,0,92.7-41.6,92.7-92.7
		S894.7,411.8,843.6,411.8z M843.6,581.8c-42.6,0-77.3-34.7-77.3-77.3s34.7-77.3,77.3-77.3s77.3,34.7,77.3,77.3
		S886.2,581.8,843.6,581.8z"/>
	<polygon class="st1" points="766.4,643.6 750.9,643.6 750.9,713.1 820.4,713.1 820.4,697.6 766.4,697.6 	"/>
	<polygon class="st1" points="920.9,697.6 866.8,697.6 866.8,713.1 936.3,713.1 936.3,643.6 920.9,643.6 	"/>
	<polygon class="st1" points="766.4,311.4 820.4,311.4 820.4,295.9 750.9,295.9 750.9,365.4 766.4,365.4 	"/>
	<polygon class="st1" points="866.8,311.4 920.9,311.4 920.9,365.4 936.3,365.4 936.3,295.9 866.8,295.9 	"/>
	<polygon class="st1" points="1036.8,311.4 1036.8,365.4 1052.2,365.4 1052.2,295.9 982.7,295.9 982.7,311.4 	"/>
	<path class="st1" d="M1117.9,604.9h-3.9v-15.5h-15.5v15.5h-3.9c-14.9,0-27,12.1-27,27s12.1,27,27,27h23.2c6.4,0,11.6,5.2,11.6,11.6
		c0,6.4-5.2,11.6-11.6,11.6h-23.2c-6.4,0-11.6-5.2-11.6-11.6v-3.9h-15.5v3.9c0,14.9,12.1,27,27,27h3.9V713h15.5v-15.5h3.9
		c14.9,0,27-12.1,27-27s-12.1-27-27-27h-23.2c-6.4,0-11.6-5.2-11.6-11.6c0-6.4,5.2-11.6,11.6-11.6h23.2c6.4,0,11.6,5.2,11.6,11.6
		v3.9h15.5V632C1144.9,617.1,1132.8,604.9,1117.9,604.9z"/>
	<path class="st1" d="M1199,566.3c0-51.1-41.6-92.7-92.7-92.7c-8,0-15.8,1.1-23.2,3.1V265H967.2h-7.7H720v479h239.5h7.7h115.9v-3.1
		c7.4,1.9,15.2,3.1,23.2,3.1c51.1,0,92.7-41.6,92.7-92.7c0-15.4-3.8-29.9-10.5-42.7C1195.3,595.5,1199,581,1199,566.3z
		 M1183.5,566.3c0,9.2-1.8,18.3-5.1,27c-17-21.1-43-34.7-72.2-34.7h-11.6c-6.4,0-11.6-5.2-11.6-11.6s5.2-11.6,11.6-11.6h23.2
		c6.4,0,11.6,5.2,11.6,11.6v3.9h15.5V547c0-14.9-12.1-27-27-27h-3.9v-15.5h-15.5V520h-3.9c-14.9,0-27,12.1-27,27
		c0,6.7,2.5,12.7,6.5,17.4c-15.9,5.9-29.7,15.9-40.1,28.9c-3.2-8.6-5.1-17.8-5.1-27c0-42.6,34.7-77.3,77.3-77.3
		S1183.5,523.7,1183.5,566.3z M967.2,581.4v-88.5c0-6.4,5.2-11.6,11.6-11.6s11.6,5.2,11.6,11.6v23.2c0,6.4-5.2,11.6-11.6,11.6H975
		v15.5h3.9c14.9,0,27-12.1,27-27v-3.9h15.5v-15.5h-15.5v-3.9c0-14.9-12.1-27-27-27c-4.2,0-8.1,1-11.6,2.7v-40.9
		c39,3.9,69.5,36.9,69.5,76.9c0,0.2,0,0.5,0,0.7c-12.9,14.6-21.2,33.3-22.8,53.8C1001.2,571.8,984.9,579.6,967.2,581.4z
		 M1067.7,280.5v201.7c-5.8,2.7-11.3,6-16.4,9.7c-5.8-42.6-40.7-76.1-84-79.7V280.5H1067.7z M951.8,728.5H735.5v-448h216.3V728.5z
		 M967.2,728.5V596.8c17.3-1.4,33.5-7.6,47.3-17.8c1.4,10.3,4.8,20.3,9.6,29.6c-6.7,12.8-10.5,27.3-10.5,42.7
		c0,16.9,4.6,32.7,12.5,46.4h-43.4v15.5h54.7c5.3,5.9,11.2,11.1,17.8,15.5h-88V728.5z M1106.3,728.5c-42.6,0-77.3-34.7-77.3-77.3
		s34.7-77.3,77.3-77.3s77.3,34.7,77.3,77.3S1148.9,728.5,1106.3,728.5z"/>
	<path class="st1" d="M1315.9,587.9c-14.1-4.9-29.5,2.6-34.4,16.7c-4.9,14.1,2.6,29.5,16.7,34.4l21.9,7.6c6,2.1,9.2,8.7,7.1,14.7
		s-8.7,9.2-14.7,7.1l-21.9-7.6c-6-2.1-9.2-8.7-7.1-14.7l1.3-3.6l-14.6-5.1l-1.3,3.6c-4.9,14.1,2.6,29.5,16.7,34.4l3.6,1.3l-5.1,14.6
		l14.6,5.1l5.1-14.6l3.6,1.3c14.1,4.9,29.5-2.6,34.4-16.7c4.9-14.1-2.6-29.5-16.7-34.4l-21.9-7.6c-6-2.1-9.2-8.7-7.1-14.7
		s8.7-9.2,14.7-7.1l21.9,7.6c6,2.1,9.2,8.7,7.1,14.7l-1.3,3.6l14.6,5.1l1.3-3.6c4.9-14.1-2.6-29.5-16.7-34.4l-3.6-1.3l5.1-14.6
		l-14.6-5.1l-5.1,14.6L1315.9,587.9z"/>
	<path class="st1" d="M1224,605.1c-16.8,48.3,8.9,101.2,57.2,118c48.3,16.8,101.2-8.9,118-57.2s-8.9-101.2-57.2-118
		C1293.7,531.2,1240.8,556.8,1224,605.1z M1384.6,660.8c-14,40.2-58.1,61.6-98.3,47.6c-40.2-14-61.6-58.1-47.6-98.3
		s58.1-61.6,98.3-47.6C1377.2,576.5,1398.6,620.6,1384.6,660.8z"/>
	<path class="st1" d="M614.4,610.3c-14.3,4.2-22.5,19.3-18.3,33.6s19.3,22.5,33.6,18.3l22.2-6.5c6.1-1.8,12.6,1.7,14.4,7.8
		s-1.7,12.6-7.8,14.4l-22.2,6.5c-6.1,1.8-12.6-1.7-14.4-7.8l-1.1-3.7l-14.8,4.4l1.1,3.7c4.2,14.3,19.3,22.5,33.6,18.3l3.7-1.1
		l4.4,14.8l14.8-4.4l-4.4-14.8l3.7-1.1c14.3-4.2,22.5-19.3,18.3-33.6s-19.3-22.5-33.6-18.3l-22.2,6.5c-6.1,1.8-12.6-1.7-14.4-7.8
		s1.7-12.6,7.8-14.4l22.2-6.5c6.1-1.8,12.6,1.7,14.4,7.8l1.1,3.7l14.8-4.4l-1.1-3.7c-4.2-14.3-19.3-22.5-33.6-18.3l-3.7,1.1
		l-4.4-14.8l-14.8,4.4l4.4,14.8L614.4,610.3z"/>
	<path class="st1" d="M549.7,677.7c14.4,49,66.1,77.2,115.1,62.8s77.2-66.1,62.8-115.1s-66.1-77.2-115.1-62.8
		S535.2,628.6,549.7,677.7z M712.7,629.7c12,40.9-11.4,83.9-52.3,95.9c-40.9,12-83.9-11.4-95.9-52.3c-12-40.9,11.4-83.9,52.3-95.9
		C657.7,565.4,700.7,588.8,712.7,629.7z"/>
</g>
</svg>
