<?xml version="1.0" encoding="utf-8"?>
<!-- Generator: Adobe Illustrator 21.1.0, SVG Export Plug-In . SVG Version: 6.00 Build 0)  -->
<svg version="1.1" id="Layer_1" xmlns="http://www.w3.org/2000/svg" xmlns:xlink="http://www.w3.org/1999/xlink" x="0px" y="0px"
	 viewBox="0 0 1366 768" style="enable-background:new 0 0 1366 768;" xml:space="preserve">
<style type="text/css">
	.st0{opacity:0.54;}
	.st1{fill:#8E579B;}
	.st2{opacity:0.54;fill:#8E579B;}
</style>
<g class="st0">
	<path class="st1" d="M1039.9,390.4c0,8.5-6.9,15.5-15.5,15.5c-8.5,0-15.5-6.9-15.5-15.5c0-8.5,6.9-15.5,15.5-15.5
		C1032.9,375,1039.9,381.9,1039.9,390.4z M1102.6,375c-8.5,0-15.5,6.9-15.5,15.5c0,8.5,6.9,15.5,15.5,15.5c8.5,0,15.5-6.9,15.5-15.5
		C1118,381.9,1111.1,375,1102.6,375z M1214,381.8v29.4c0,14.7-12,26.7-26.7,26.7h-19.4c-19.2,53.3-68.2,85.5-104.4,85.5
		s-85.2-32.2-104.4-85.5h-19.4c-14.7,0-26.7-12-26.7-26.7v-29.4c0-10.1,5.7-19,14-23.5c0.3-41.7,12.4-74.3,36.2-96.8
		c23.5-22.3,57.3-33.7,100.3-33.7s76.8,11.3,100.3,33.7c23.7,22.5,35.9,55.1,36.2,96.8C1208.3,362.9,1214,371.7,1214,381.8z
		 M1157.5,390.5c0-6.9-0.4-13.3-0.9-19.6c-11.8-10.8-33.4-19.1-60.5-22.1c3.6,4,6.6,9.3,8.5,16.2c-16.6-13.1-49.3-10-74-39.3
		c-1.4-1.6-2.6-3.2-3.7-4.6c0,0,0,0,0,0l0,0c-4.4-5.9-5.9-9.5-6-5.6c-0.7,33.7-24.6,60-51.1,63.7c-0.2,3.7-0.3,7.4-0.3,11.4
		c0,14.2,2.3,27.2,6.3,38.9c14.9,18,39.5,23,61.3,24.4c4-6.4,13.1-10.9,23.7-10.9c14.3,0,25.9,8.2,25.9,18.4
		c0,10.2-11.6,18.4-25.9,18.4c-11,0-20.4-4.9-24.2-11.8c-15.2-0.9-31.9-3.5-46.9-10.5c21,30.9,53.5,47.3,73.8,47.3
		C1095.4,504.7,1157.5,464.4,1157.5,390.5z M1183.9,355.1c-1.7-72.8-43.2-111.2-120.4-111.2s-118.7,38.4-120.4,111.2h10.3
		c3.8-24.5,11.7-44.7,23.7-60.2c19.2-24.7,48.3-37.2,86.4-37.2s67.2,12.5,86.4,37.2c12.1,15.5,20,35.7,23.7,60.2L1183.9,355.1
		L1183.9,355.1z"/>
</g>
<path class="st2" d="M884.7,481.7c-2.2-2.6-1.9-6.4,0.7-8.5l9.8-8.3c2.6-2.2,6.4-1.9,8.5,0.7c2.2,2.6,1.9,6.4-0.7,8.5l-9.8,8.3
	c-1.1,1-2.5,1.4-3.9,1.4C887.6,483.8,885.9,483.1,884.7,481.7z M902.3,507.3c-3.4,0-6.1,2.7-6.1,6c0,3.3,2.7,6.1,6,6.1l12.9,0.1
	c0,0,0,0,0,0c3.3,0,6-2.7,6.1-6c0-3.3-2.7-6.1-6-6.1L902.3,507.3z M894.6,496c0.9,2.5,3.2,4,5.7,4c0.7,0,1.4-0.1,2.1-0.4l21.3-7.8
	c3.1-1.1,4.8-4.6,3.6-7.8c-1.1-3.1-4.6-4.8-7.8-3.6l-21.3,7.8C895.1,489.4,893.5,492.8,894.6,496z M851.1,687.9
	c-0.6,3.2-2.1,7-4.2,10.7c-5.8,10.1-12.9,14.5-18.5,11.6l-8.9-4c-3.4,2.6-7.1,4.7-11,6.4l-1,9.7c-0.3,6.3-7.6,10.2-19.3,10.2
	c-11.6,0-19-3.9-19.3-10.2l-1-9.7c-3.9-1.7-7.6-3.8-11-6.4l-8.9,4c-5.6,2.9-12.7-1.5-18.5-11.6c-5.8-10.1-6.1-18.4-0.8-21.8l7.8-5.7
	c-0.3-2.1-0.4-4.3-0.4-6.4c0-2.1,0.1-4.2,0.4-6.3l-7.8-5.7c-5.3-3.4-5-11.7,0.8-21.8c5.8-10.1,12.9-14.5,18.5-11.6l8.8,3.9
	c3.4-2.6,7.2-4.8,11.1-6.4l1-9.6c0.3-6.3,7.7-10.2,19.3-10.2c11.7,0,19,3.9,19.3,10.2l1,9.5c4,1.7,7.7,3.8,11.1,6.4l8.8-3.9
	c5.6-2.9,12.7,1.5,18.5,11.6c2.1,3.6,3.6,7.4,4.2,10.7c1.3,6.8-1.4,9.9-3.4,11.2l-7.8,5.7c0.3,2.1,0.4,4.2,0.4,6.3
	c0,2.2-0.1,4.3-0.4,6.4l7.8,5.7C849.7,678,852.4,681.1,851.1,687.9z M829.7,650.6l9.5-6.9c-0.3-1.4-1.1-3.9-2.8-6.9
	c-1.7-3-3.5-5-4.6-5.9l-10.7,4.8c-2.2,1-4.7,0.6-6.5-1c-4-3.6-8.7-6.2-13.7-7.9c-2.3-0.8-3.9-2.8-4.1-5.1l-1.2-11.6
	c-1.4-0.5-3.9-1-7.4-1c-3.5,0-6,0.5-7.4,1l-1.2,11.6c-0.2,2.4-1.8,4.4-4.1,5.1c-5.1,1.7-9.7,4.4-13.7,7.9c-1.8,1.6-4.3,2-6.5,1
	l-10.7-4.8c-1.1,0.9-2.8,2.9-4.6,5.9c-1.7,3-2.6,5.5-2.8,6.9l9.5,6.9c1.9,1.4,2.9,3.8,2.4,6.1c-0.5,2.6-0.8,5.2-0.8,7.9
	c0,2.7,0.3,5.4,0.8,8c0.5,2.3-0.5,4.7-2.4,6.1l-9.5,6.9c0.3,1.4,1.1,3.9,2.8,6.9c1.7,3,3.5,5,4.6,5.9l10.8-4.8c2.2-1,4.7-0.6,6.5,1
	c4,3.5,8.6,6.2,13.6,7.9c2.3,0.8,3.9,2.8,4.1,5.1l1.2,11.7c1.4,0.5,3.9,1,7.4,1c3.5,0,6-0.5,7.4-1l1.2-11.7c0.2-2.4,1.8-4.4,4.1-5.1
	c5-1.7,9.6-4.3,13.6-7.9c1.8-1.6,4.3-2,6.5-1l10.8,4.8c1.1-0.9,2.8-2.9,4.6-5.9c1.7-3,2.6-5.5,2.8-6.9l-9.5-6.9
	c-1.9-1.4-2.9-3.8-2.4-6.1c0.5-2.6,0.8-5.3,0.8-8c0-2.6-0.3-5.3-0.8-7.9C826.9,654.4,827.8,652,829.7,650.6z M811.3,664.6
	c0,12.7-10.3,23.1-23.1,23.1c-12.7,0-23.1-10.3-23.1-23.1c0-12.7,10.3-23.1,23.1-23.1C800.9,641.5,811.3,651.9,811.3,664.6z
	 M799.1,664.6c0-6-4.9-10.9-10.9-10.9c-6,0-10.9,4.9-10.9,10.9c0,6,4.9,10.9,10.9,10.9C794.2,675.5,799.1,670.6,799.1,664.6z
	 M950.2,701.4l-19.5-53.2c-0.1-0.3-0.2-0.5-0.3-0.7c-1.9-4.3-5.9-7.4-10.6-7.9c-3-0.4-5.9-0.5-8.7-0.7c-1.4-0.1-2.8-0.2-4.1-0.3
	c-4.7-0.3-8.8-1-12.5-1.9c-7.6-2-12.6-4.8-16.2-9.1c-6.4-7.8-16.5-35.4-16.6-45.5c-0.1-5.6,1.9-11,6.4-17.4c2.3-3.2,4.8-6.1,8.3-9.6
	c1-1,2-1.9,3-2.8c1.8-1.7,3.7-3.5,5.5-5.4c4-3.7,5.3-9.3,3.5-14.5l-19.5-53.2c-2.5-7-10.3-10.5-17.2-8l-13.5,4.9
	c-3.6,1.3-5.4,2-9.6,4.5c-24.3,14.8-37.5,43.5-37.4,80.8c0,6.7,0.5,13.7,1.4,20.7c0.4,3.3,3.4,5.7,6.8,5.3c3.3-0.4,5.7-3.4,5.3-6.8
	c-0.8-6.6-1.2-13.1-1.3-19.3c-0.1-32.9,11.1-58,31.6-70.5c3.1-1.9,4.1-2.3,7.4-3.5l13.5-4.9c0.7-0.2,1.4,0.1,1.7,0.8l19.5,53.2
	c0.2,0.6-0.1,1.1-0.4,1.4c-0.1,0.1-0.3,0.2-0.4,0.4c-1.6,1.7-3.3,3.3-5.2,5.1c-1.1,1-2.1,2-3.1,3c-4,3.9-7.1,7.5-9.7,11.2
	c-6,8.5-8.8,16.3-8.7,24.6c0.2,12.9,11.2,43.1,19.4,53c5.2,6.4,12.4,10.5,22.5,13.2c4.4,1.1,9.2,1.9,14.7,2.3
	c1.5,0.1,2.9,0.2,4.4,0.3c2.7,0.2,5.3,0.3,7.9,0.6c0.6,0.1,0.9,0.5,1,0.8c0.1,0.2,0.1,0.4,0.2,0.5l19.3,52.6
	c0.2,0.7-0.1,1.4-0.8,1.7l-12.2,4.5c-4.7,1.7-6.1,2.2-10.9,2.8c-16.5,2-33-3.1-48.9-15.3c-2.7-2-6.5-1.5-8.5,1.1
	c-2,2.7-1.5,6.5,1.1,8.5c15.7,12,32.6,18.2,49.4,18.2c2.8,0,5.6-0.2,8.4-0.5c5.9-0.7,8.3-1.6,13.6-3.5l12.2-4.5
	C949.1,716.1,952.7,708.4,950.2,701.4z"/>
</svg>
