<?xml version="1.0" encoding="utf-8"?>
<!-- Generator: Adobe Illustrator 21.1.0, SVG Export Plug-In . SVG Version: 6.00 Build 0)  -->
<svg version="1.1"
	 id="svg2" xmlns:cc="http://creativecommons.org/ns#" xmlns:dc="http://purl.org/dc/elements/1.1/" xmlns:rdf="http://www.w3.org/1999/02/22-rdf-syntax-ns#" xmlns:svg="http://www.w3.org/2000/svg"
	 xmlns="http://www.w3.org/2000/svg" xmlns:xlink="http://www.w3.org/1999/xlink" x="0px" y="0px" viewBox="0 0 128 128"
	 style="enable-background:new 0 0 128 128;" xml:space="preserve">
<style type="text/css">
	.st0{fill:#6F00FF;}
	.st1{fill:#FFFFFF;}
</style>
<g id="layer1" transform="translate(0,-924.36216)">
	<rect id="rect4140" x="-0.5" y="924.4" class="st0" width="128.5" height="128"/>
	<g>
		<g>
			<g>
				<path class="st1" d="M11.8,981.4l-4-7.3c-4.2,2.3-8.3,4.9-12.2,7.7l4.8,6.7C4,985.9,7.9,983.5,11.8,981.4z"/>
				<path class="st1" d="M36.6,971.4l-2.1-8c-4.6,1.2-9.2,2.8-13.7,4.6l3.1,7.7C28,974,32.3,972.5,36.6,971.4z"/>
				<path class="st1" d="M118.7,972c-4.3-2.1-8.7-4-13.3-5.7l-2.8,7.8c4.2,1.5,8.4,3.3,12.3,5.3L118.7,972z"/>
				<path class="st1" d="M153.1,997.9l-6.1,5.6c3,3.3,5.9,6.8,8.5,10.4l6.7-4.8C159.4,1005.2,156.4,1001.5,153.1,997.9z"/>
				<path class="st1" d="M126.6,986.1c3.7,2.5,7.3,5.2,10.7,8.1l5.4-6.3c-3.6-3.1-7.5-6-11.5-8.7L126.6,986.1z"/>
				<path class="st1" d="M-25.6,1001.3l6.3,5.4c2.9-3.4,6-6.6,9.3-9.7l-5.6-6.1C-19.1,994.1-22.5,997.6-25.6,1001.3z"/>
				<path class="st1" d="M40.9,975.2l4.2,0l5-7.7l16.2,0.1l-7.3,25c0,0.7,0.6,1.3,1.3,1.3h6.7L81,968.2l12.8,0.4
					c3.6,0,6.6-2.8,6.6-6.2c0-3.4-2.9-6.2-6.6-6.2l-12.9,0.4l-13.8-25.7l-6.7,0c-0.7,0-1.3,0.6-1.3,1.3l7.2,24.8L50,957.2l-5-7.5
					l-4.2,0c-0.6,0-1,0.4-1,1v23.5C39.9,974.8,40.4,975.2,40.9,975.2z"/>
				<path class="st1" d="M81.6,1006.8c-5.4-1.2-11-1.9-16.5-1.9c-34.7,0-64.3,23.6-72,57.5c-1.5,6.5-2.1,13-1.8,19.5h8.3v0
					c-0.3-5.9,0.2-11.8,1.6-17.7c2.7,0.7,14.8,4.1,14.4,8c-0.3,3.3-1.4,7-0.5,9.7h7.6c1-0.8,2.1-1.1,3-0.1c0,0,0.1,0.1,0.1,0.1h60.2
					c-14.2-9-16.2-25-16.2-25c-1-0.4,1.9-11.8-2.6-13.1c-4.5-1.4-7.3-0.3-13.6-3.1c-6.3-2.8-4-6.8-2.9-16.1c0.4-4,1.5-7.6,2.8-10.4
					c3.8-0.7,7.6-1,11.5-1c4.9,0,9.8,0.6,14.6,1.7c17.1,3.9,31.6,14.2,41,29c7,11.2,10.5,23.9,10.1,36.8c-0.5,0.4-1.1,0.8-1.7,1.2
					h10c0.7-14.9-3.2-29.6-11.3-42.4C117.3,1022.8,100.9,1011.2,81.6,1006.8z"/>
			</g>
		</g>
	</g>
</g>
</svg>
